<svg xmlns="http://www.w3.org/2000/svg" width="512" height="512" viewBox="0 0 512 512">
  <rect width="512" height="512" rx="50" fill="#1a1a1a"/>
  <path d="M256 120C179.3 120 117 182.3 117 259C117 335.7 179.3 398 256 398C332.7 398 395 335.7 395 259C395 182.3 332.7 120 256 120ZM256 358C201.3 358 157 313.7 157 259C157 204.3 201.3 160 256 160C310.7 160 355 204.3 355 259C355 313.7 310.7 358 256 358Z" fill="#3a86ff"/>
  <circle cx="256" cy="259" r="60" fill="#3a86ff"/>
  <path d="M256 120V160M256 358V398M117 259H157M355 259H395" stroke="#3a86ff" stroke-width="20" stroke-linecap="round"/>
</svg>